<svg width="36" height="36" viewBox="0 0 36 36" fill="none" xmlns="http://www.w3.org/2000/svg">
<path d="M22.825 10.1587V7.9676C22.825 7.38513 22.3528 6.91291 21.7703 6.91291H19.0813V5.52227H19.7344C20.3169 5.52227 20.7891 5.05006 20.7891 4.46759V1.05469C20.7891 0.472219 20.3169 0 19.7344 0H16.3188C15.7364 0 15.2641 0.472219 15.2641 1.05469V1.70824C15.2522 1.70782 15.2406 1.70641 15.2286 1.70641H12.1133C10.595 1.70641 9.35986 2.94159 9.35986 4.45985V5.10919C9.35986 5.69166 9.83208 6.16388 10.4146 6.16388C10.997 6.16388 11.4692 5.69166 11.4692 5.10919V4.59478V4.45985C11.4692 4.1047 11.7582 3.81579 12.1133 3.81579H13.0662H15.2285C15.2405 3.81579 15.2522 3.81438 15.2641 3.81396V4.46752C15.2641 5.04998 15.7363 5.5222 16.3188 5.5222H16.9719V6.91284H14.2829C13.7004 6.91284 13.2282 7.38506 13.2282 7.96753V10.1587C11.1109 10.238 9.41274 11.9841 9.41274 14.1204V34.9453C9.41274 35.5278 9.88496 36 10.4674 36H25.5857C26.1682 36 26.6404 35.5278 26.6404 34.9453V14.1205C26.6404 11.9842 24.9422 10.2381 22.825 10.1587ZM17.3735 2.10938H18.6797V3.4129H17.3735V2.10938ZM15.3376 9.02229H20.7156V10.155H15.3376V9.02229ZM24.5311 33.8906H11.5222V14.1205C11.5222 13.097 12.3548 12.2643 13.3784 12.2643H22.6749C23.6984 12.2643 24.5311 13.097 24.5311 14.1205V33.8906Z" fill="url(#paint0_linear_23_505)"/>
<defs>
<linearGradient id="paint0_linear_23_505" x1="9.00012" y1="36" x2="21.4786" y2="-1.70817" gradientUnits="userSpaceOnUse">
<stop stop-color="#43AA8B"/>
<stop offset="1" stop-color="#9DEFD6"/>
</linearGradient>
</defs>
</svg>
