<svg width="16" height="17" viewBox="0 0 16 17" fill="none" xmlns="http://www.w3.org/2000/svg">
<g clip-path="url(#clip0_202_1401)">
<path d="M14.9361 8.70729C14.8717 8.57557 14.8717 8.42451 14.9361 8.29283L15.5329 7.07205C15.8651 6.39234 15.6019 5.58219 14.9336 5.22759L13.7332 4.59072C13.6037 4.52203 13.515 4.39979 13.4896 4.25544L13.2549 2.91704C13.1242 2.17186 12.4348 1.67111 11.6859 1.77708L10.3405 1.96739C10.1953 1.98789 10.0517 1.94121 9.94633 1.8393L8.96974 0.894556C8.42596 0.368497 7.57409 0.368466 7.03035 0.894556L6.05373 1.83939C5.94835 1.94133 5.80476 1.98792 5.65957 1.96749L4.31418 1.77718C3.56496 1.67115 2.8759 2.17196 2.74519 2.91714L2.51044 4.25547C2.48509 4.39985 2.39631 4.52207 2.26684 4.59078L1.06654 5.22766C0.39823 5.58222 0.134982 6.39243 0.46723 7.07215L1.06395 8.29289C1.12832 8.42461 1.12832 8.57567 1.06395 8.70735L0.467199 9.9281C0.134951 10.6078 0.398199 11.418 1.06651 11.7726L2.26681 12.4094C2.39631 12.4781 2.48509 12.6004 2.51044 12.7447L2.74519 14.0831C2.86418 14.7615 3.44587 15.2372 4.1144 15.2372C4.18024 15.2372 4.24705 15.2325 4.31421 15.223L5.65961 15.0327C5.8047 15.0121 5.94838 15.0589 6.05376 15.1608L7.03035 16.1056C7.30228 16.3686 7.65109 16.5001 8.00003 16.5001C8.34887 16.5001 8.6979 16.3686 8.96971 16.1056L9.94633 15.1608C10.0517 15.0589 10.1953 15.0123 10.3405 15.0327L11.6859 15.223C12.4352 15.329 13.1242 14.8283 13.2549 14.0831L13.4897 12.7447C13.515 12.6004 13.6038 12.4781 13.7332 12.4094L14.9336 11.7726C15.6019 11.418 15.8651 10.6078 15.5329 9.92807L14.9361 8.70729ZM6.15438 4.34741C7.08725 4.34741 7.84622 5.10638 7.84622 6.03925C7.84622 6.97211 7.08725 7.73108 6.15438 7.73108C5.22151 7.73108 4.46255 6.97211 4.46255 6.03925C4.46255 5.10638 5.22151 4.34741 6.15438 4.34741ZM5.28114 11.8714C5.19105 11.9615 5.07295 12.0066 4.95489 12.0066C4.83683 12.0066 4.7187 11.9616 4.62864 11.8714C4.44846 11.6912 4.44846 11.3991 4.62864 11.2189L10.7189 5.12866C10.899 4.94847 11.1912 4.94847 11.3714 5.12866C11.5516 5.30884 11.5516 5.601 11.3714 5.78118L5.28114 11.8714ZM9.84561 12.6527C8.91274 12.6527 8.15378 11.8938 8.15378 10.9609C8.15378 10.028 8.91274 9.26907 9.84561 9.26907C10.7785 9.26907 11.5374 10.028 11.5374 10.9609C11.5374 11.8938 10.7785 12.6527 9.84561 12.6527Z" fill="#A7A7A7"/>
<path d="M9.84569 10.1919C9.42166 10.1919 9.07666 10.5369 9.07666 10.9609C9.07666 11.3849 9.42163 11.7299 9.84569 11.7299C10.2697 11.7299 10.6147 11.3849 10.6147 10.9609C10.6147 10.5369 10.2697 10.1919 9.84569 10.1919Z" fill="#A7A7A7"/>
<path d="M6.15425 5.27002C5.73022 5.27002 5.38525 5.61499 5.38525 6.03902C5.38525 6.46304 5.73022 6.80804 6.15425 6.80804C6.57828 6.80804 6.92328 6.46308 6.92328 6.03902C6.92325 5.61502 6.57828 5.27002 6.15425 5.27002Z" fill="#A7A7A7"/>
</g>
<defs>
<clipPath id="clip0_202_1401">
<rect width="16" height="16" fill="white" transform="translate(0 0.5)"/>
</clipPath>
</defs>
</svg>
