<svg width="24" height="24" viewBox="0 0 24 24" fill="none" xmlns="http://www.w3.org/2000/svg">
<g clip-path="url(#clip0_50_77)">
<path d="M22.4039 12.3109C22.3074 12.1134 22.3074 11.8868 22.4039 11.6892L23.299 9.85808C23.7974 8.83851 23.4025 7.62328 22.4001 7.09139L20.5996 6.13608C20.4054 6.03305 20.2722 5.84968 20.2342 5.63316L19.8821 3.62557C19.686 2.50779 18.652 1.75667 17.5286 1.91562L15.5105 2.20109C15.2927 2.23184 15.0773 2.16181 14.9193 2.00895L13.4544 0.591834C12.6387 -0.197255 11.3609 -0.197302 10.5453 0.591834L9.08035 2.00909C8.92229 2.162 8.7069 2.23189 8.48912 2.20123L6.47102 1.91576C5.3472 1.75672 4.31361 2.50793 4.11753 3.62571L3.76541 5.63321C3.7274 5.84977 3.59422 6.0331 3.40002 6.13618L1.59956 7.09148C0.597101 7.62332 0.202228 8.83865 0.700601 9.85822L1.59567 11.6893C1.69224 11.8869 1.69224 12.1135 1.59567 12.311L0.700554 14.1421C0.202182 15.1617 0.597054 16.3769 1.59952 16.9088L3.39998 17.8641C3.59422 17.9672 3.7274 18.1505 3.76541 18.3671L4.11753 20.3747C4.29603 21.3922 5.16856 22.1058 6.17135 22.1057C6.27011 22.1057 6.37033 22.0988 6.47107 22.0846L8.48916 21.7991C8.7068 21.7682 8.92233 21.8384 9.08039 21.9912L10.5453 23.4083C10.9532 23.8029 11.4764 24.0002 11.9998 24.0001C12.5231 24.0001 13.0466 23.8028 13.4543 23.4083L14.9193 21.9912C15.0773 21.8384 15.2927 21.7685 15.5105 21.7991L17.5286 22.0846C18.6525 22.2436 19.686 21.4924 19.8821 20.3746L20.2342 18.3671C20.2722 18.1505 20.4054 17.9672 20.5996 17.8641L22.4001 16.9088C23.4025 16.377 23.7974 15.1617 23.299 14.1421L22.4039 12.3109ZM9.23133 5.77112C10.6306 5.77112 11.7691 6.90956 11.7691 8.30887C11.7691 9.70817 10.6306 10.8466 9.23133 10.8466C7.83203 10.8466 6.69358 9.70817 6.69358 8.30887C6.69358 6.90956 7.83203 5.77112 9.23133 5.77112ZM7.92146 17.0571C7.78632 17.1923 7.60919 17.2599 7.43209 17.2599C7.255 17.2599 7.07781 17.1923 6.94272 17.0571C6.67244 16.7869 6.67244 16.3486 6.94272 16.0784L16.0781 6.94299C16.3483 6.67271 16.7866 6.67271 17.0569 6.94299C17.3272 7.21326 17.3272 7.6515 17.0569 7.92178L7.92146 17.0571ZM14.7682 18.2291C13.3689 18.2291 12.2304 17.0907 12.2304 15.6914C12.2304 14.2921 13.3689 13.1536 14.7682 13.1536C16.1675 13.1536 17.3059 14.2921 17.3059 15.6914C17.3059 17.0907 16.1675 18.2291 14.7682 18.2291Z" fill="#4494B5"/>
<path d="M14.7683 14.5376C14.1322 14.5376 13.6147 15.055 13.6147 15.6911C13.6147 16.3271 14.1322 16.8446 14.7683 16.8446C15.4043 16.8446 15.9218 16.3271 15.9218 15.6911C15.9218 15.055 15.4043 14.5376 14.7683 14.5376Z" fill="#4494B5"/>
<path d="M9.23162 7.15527C8.59558 7.15527 8.07812 7.67272 8.07812 8.30877C8.07812 8.94481 8.59558 9.46231 9.23162 9.46231C9.86766 9.46231 10.3852 8.94486 10.3852 8.30877C10.3851 7.67277 9.86766 7.15527 9.23162 7.15527Z" fill="#4494B5"/>
</g>
<defs>
<clipPath id="clip0_50_77">
<rect width="24" height="24" fill="white"/>
</clipPath>
</defs>
</svg>
