<svg width="36" height="36" viewBox="0 0 36 36" fill="none" xmlns="http://www.w3.org/2000/svg">
<path d="M0 28.2002C0 31.4498 9.6504 31.8002 13.8 31.8002C18.9396 31.8002 23.1198 31.301 25.3956 30.425C26.2267 31.2425 27.326 31.7311 28.4898 31.8002C28.9776 31.8002 28.9644 31.7744 32.1234 31.0634C33.855 30.6734 35.118 28.883 35.6826 26.0234C36.1966 22.8589 36.0676 19.6233 35.3034 16.5098C33.6402 9.12441 29.64 3.94401 26.1912 4.72281L23.265 5.38281C22.0344 5.66001 21.0708 6.66261 20.409 8.16201C16.0962 6.99081 15.6318 10.2002 11.4852 9.60621C7.86 9.08841 7.8 4.97421 7.8 4.80021C7.8002 4.5444 7.63819 4.3166 7.39649 4.23283C7.15479 4.14906 6.88655 4.22774 6.7284 4.42881C6.603 4.58841 3.7944 8.22741 4.3626 12.5996C1.0758 13.1204 0.6 13.7708 0.6 14.4002V16.4402C0.245041 16.6324 0.0171875 16.9969 0 17.4002L0 28.2002ZM5.9628 16.4126C10.4742 16.8587 15.0152 16.9215 19.5372 16.6004C19.6008 17.2004 19.6806 17.8124 19.7886 18.4358C15.7962 18.6674 5.2686 18.7994 1.8 17.6048V15.6002C3.15143 16.0314 4.54841 16.304 5.9628 16.4126ZM1.2 28.2002V21.0332C3.73324 21.7226 6.33824 22.1143 8.9622 22.2002C9.17656 22.2136 9.38179 22.1116 9.50057 21.9327C9.61935 21.7537 9.63365 21.525 9.53807 21.3327C9.44249 21.1403 9.25156 21.0136 9.0372 21.0002C4.6506 20.7272 2.3754 20.204 1.2 19.7666V18.6602C4.8054 20.045 15.9252 19.8722 20.0214 19.6256C20.7456 23.003 22.1814 26.8742 24.4578 29.486C22.2336 30.1976 18.4374 30.6002 13.8 30.6002C5.109 30.6002 1.2 29.1968 1.2 28.2002ZM34.1328 16.7726C34.8609 19.7232 34.9875 22.7901 34.5048 25.7906C34.0452 28.1222 33.0816 29.6174 31.86 29.8928C29.4558 30.4328 25.8 26.1902 24.18 19.0136C22.56 11.837 24.0522 6.43461 26.4552 5.89341C26.5943 5.86255 26.7363 5.84705 26.8788 5.84721C29.2692 5.84721 32.6088 10.0058 34.1328 16.7726ZM23.5284 6.55281L23.892 6.47061C20.1486 12.1358 23.4852 26.9564 29.2974 30.4706L28.9332 30.5528C27.711 30.8276 26.199 29.8928 24.7842 27.9812C23.0623 25.4771 21.8621 22.652 21.255 19.6742C20.9738 18.4202 20.7756 17.1491 20.6616 15.869C20.2254 10.652 21.5736 6.99321 23.5284 6.55281ZM6.0714 8.22381C6.1314 10.9874 7.491 12.9296 10.0104 13.7696C10.3252 13.8743 10.6653 13.704 10.77 13.3892C10.8747 13.0744 10.7044 12.7343 10.3896 12.6296C7.8096 11.7692 7.2096 9.67041 7.2738 7.73961C7.98649 9.40006 9.52283 10.5609 11.3148 10.793C15.8592 11.444 16.3374 8.38461 19.989 9.29301C19.4577 11.2838 19.271 13.3508 19.437 15.4046C15.1026 15.7103 10.7504 15.6597 6.4242 15.2534C5.29565 13.0715 5.16699 10.5078 6.0714 8.22381ZM4.5912 13.7786C4.71023 14.223 4.85814 14.6591 5.034 15.0842C4.0101 14.9786 3.00276 14.7493 2.034 14.4014C2.85775 14.0901 3.71656 13.8809 4.5912 13.7786Z" fill="url(#paint0_linear_23_503)"/>
<path d="M11.3998 22.2C11.7312 22.2 11.9998 21.9314 11.9998 21.6C11.9998 21.2686 11.7312 21 11.3998 21C11.0684 21 10.7998 21.2686 10.7998 21.6C10.7998 21.9314 11.0684 22.2 11.3998 22.2Z" fill="url(#paint1_linear_23_503)"/>
<path d="M25.2822 13.3579C25.3153 13.6876 25.6095 13.9281 25.9392 13.8949C26.2689 13.8618 26.5093 13.5676 26.4762 13.2379C26.19 10.3747 26.7666 9.46872 27.1362 9.18372C27.4072 8.99632 27.7514 8.94951 28.0626 9.05772C28.3695 9.17329 28.7124 9.02102 28.8324 8.71583C28.9524 8.41064 28.8052 8.06561 28.5018 7.94112C27.8065 7.67995 27.0267 7.78376 26.424 8.21772C25.4022 8.98632 25.02 10.7155 25.2822 13.3579Z" fill="url(#paint2_linear_23_503)"/>
<path d="M30.2998 26.9575C30.9954 27.2187 31.7755 27.1146 32.3782 26.6803C33.3982 25.9117 33.784 24.1825 33.5182 21.5401C33.4851 21.2103 33.1909 20.9699 32.8612 21.0031C32.5315 21.0362 32.2911 21.3303 32.3242 21.6601C32.611 24.5233 32.0338 25.4287 31.6642 25.7143C31.3936 25.902 31.0495 25.9491 30.7384 25.8409C30.539 25.7623 30.3127 25.7961 30.145 25.9296C29.9772 26.063 29.8934 26.2758 29.9251 26.4879C29.9568 26.6999 30.0992 26.8789 30.2986 26.9575H30.2998Z" fill="url(#paint3_linear_23_503)"/>
<defs>
<linearGradient id="paint0_linear_23_503" x1="1.07262e-06" y1="31.8002" x2="39.7198" y2="11.4921" gradientUnits="userSpaceOnUse">
<stop stop-color="#F9C74F"/>
<stop offset="1" stop-color="#FFEBBA"/>
</linearGradient>
<linearGradient id="paint1_linear_23_503" x1="10.7998" y1="22.2" x2="12.2477" y2="21.6323" gradientUnits="userSpaceOnUse">
<stop stop-color="#F9C74F"/>
<stop offset="1" stop-color="#FFEBBA"/>
</linearGradient>
<linearGradient id="paint2_linear_23_503" x1="25.2021" y1="13.898" x2="30.0441" y2="12.7549" gradientUnits="userSpaceOnUse">
<stop stop-color="#F9C74F"/>
<stop offset="1" stop-color="#FFEBBA"/>
</linearGradient>
<linearGradient id="paint3_linear_23_503" x1="29.9185" y1="27.0992" x2="34.7713" y2="25.9508" gradientUnits="userSpaceOnUse">
<stop stop-color="#F9C74F"/>
<stop offset="1" stop-color="#FFEBBA"/>
</linearGradient>
</defs>
</svg>
