<svg width="36" height="36" viewBox="0 0 36 36" fill="none" xmlns="http://www.w3.org/2000/svg">
<g clip-path="url(#clip0_23_509)">
<path d="M14.6182 12.3999C14.3269 12.3999 14.0908 12.6359 14.0908 12.9272V13.4909C14.0908 13.7822 14.3269 14.0183 14.6182 14.0183C14.9095 14.0183 15.1455 13.7822 15.1455 13.4909V12.9272C15.1455 12.636 14.9095 12.3999 14.6182 12.3999Z" fill="url(#paint0_linear_23_509)"/>
<path d="M21.3818 12.3999C21.0905 12.3999 20.8545 12.6359 20.8545 12.9272V13.4909C20.8545 13.7822 21.0905 14.0183 21.3818 14.0183C21.6731 14.0183 21.9092 13.7822 21.9092 13.4909V12.9272C21.9092 12.636 21.6731 12.3999 21.3818 12.3999Z" fill="url(#paint1_linear_23_509)"/>
<path d="M20.0662 17.6298C19.8617 17.4223 19.5278 17.4202 19.3206 17.6247C19.128 17.8146 18.6666 18.0364 17.9999 18.0364C17.3333 18.0364 16.8719 17.8146 16.6793 17.6247C16.472 17.42 16.1381 17.4223 15.9337 17.6298C15.7291 17.837 15.7314 18.171 15.9387 18.3754C16.393 18.8235 17.1635 19.0911 17.9999 19.0911C18.8364 19.0911 19.6069 18.8235 20.0612 18.3754C20.2685 18.171 20.2708 17.837 20.0662 17.6298Z" fill="url(#paint2_linear_23_509)"/>
<path d="M15.1819 10.709H14.0547C13.7634 10.709 13.5273 10.945 13.5273 11.2363C13.5273 11.5276 13.7634 11.7637 14.0547 11.7637H15.1819C15.4732 11.7637 15.7093 11.5276 15.7093 11.2363C15.7093 10.945 15.4732 10.709 15.1819 10.709Z" fill="url(#paint3_linear_23_509)"/>
<path d="M21.9451 10.709H20.8179C20.5266 10.709 20.2905 10.945 20.2905 11.2363C20.2905 11.5276 20.5266 11.7637 20.8179 11.7637H21.9451C22.2364 11.7637 22.4725 11.5276 22.4725 11.2363C22.4725 10.945 22.2364 10.709 21.9451 10.709Z" fill="url(#paint4_linear_23_509)"/>
<path d="M29.2945 27.4705L25.5483 26.3178C25.057 26.1666 24.7269 25.7197 24.7269 25.2057V22.5091C24.7269 21.9582 24.316 21.5025 23.7849 21.4295C24.2634 20.6253 24.579 19.7136 24.686 18.7399C25.2581 17.8135 25.6286 16.7825 25.7783 15.7091H26.0918C26.092 15.7091 26.0919 15.7091 26.092 15.7091C27.1197 15.709 28.0012 14.9454 28.0988 13.9705C28.1535 13.4241 27.9747 12.8786 27.6084 12.4737C27.31 12.144 26.9076 11.9287 26.4737 11.8601L26.8868 7.93613C27.0694 6.20153 26.5048 4.4632 25.3379 3.16699C24.1708 1.87065 22.5012 1.12724 20.757 1.12724H15.1815C13.2303 1.12724 11.6453 0.754439 11.0454 0.154395C10.9057 0.0147544 10.6999 -0.0350267 10.5115 0.0250903C10.3234 0.0853479 10.1847 0.2458 10.1523 0.440565C10.14 0.514745 9.93549 1.82593 10.5173 3.33363C9.44766 4.61079 8.93727 6.27135 9.11256 7.93606L9.52684 11.8716C8.6698 12.0322 7.98587 12.7228 7.90059 13.5746C7.84588 14.121 8.02455 14.6666 8.39087 15.0714C8.75748 15.4766 9.28095 15.7089 9.82714 15.7089H10.2207C10.3703 16.7827 10.7408 17.8132 11.3134 18.7401C11.4205 19.7137 11.736 20.6252 12.2145 21.4293C11.6834 21.5023 11.2725 21.9579 11.2725 22.5088V25.2055C11.2725 25.7195 10.9424 26.1664 10.4512 26.3176L6.70479 27.4703C5.05421 27.9782 3.94531 29.4796 3.94531 31.2065V35.4727C3.94531 35.764 4.18135 36 4.47265 36C4.76396 36 5 35.764 5 35.4727V31.2068C5 29.9458 5.80978 28.8494 7.015 28.4785L10.441 27.4244C11.3822 29.8095 14.451 31.491 17.9997 31.491C19.254 31.491 20.452 31.2882 21.5605 30.8882C21.8344 30.7894 21.9765 30.4872 21.8776 30.2132C21.7787 29.9392 21.4763 29.7971 21.2026 29.8961C20.2232 30.2495 19.1157 30.4363 17.9997 30.4363C16.3601 30.4363 14.7741 30.0359 13.5339 29.3088C12.4897 28.6966 11.7484 27.8884 11.4095 27.0043C11.9765 26.5966 12.3271 25.9369 12.3271 25.2057V22.5091C12.3271 22.4892 12.3433 22.4728 12.3634 22.4728H12.9794C14.2124 23.8553 16.006 24.7273 17.9997 24.7273C19.9935 24.7273 21.787 23.8552 23.02 22.4728H23.636C23.6561 22.4728 23.6724 22.4891 23.6724 22.5091V25.2057C23.6724 25.9371 24.0231 26.5968 24.5902 27.0045C24.3306 27.6828 23.8345 28.3174 23.1384 28.8559C22.908 29.034 22.8657 29.3653 23.0439 29.5956C23.1478 29.7299 23.3037 29.8003 23.4614 29.8003C23.5741 29.8003 23.6876 29.7644 23.7837 29.6901C24.6201 29.0432 25.2252 28.2672 25.558 27.4242L28.9846 28.4786C30.1899 28.8494 30.9996 29.9458 30.9996 31.2068V35.4727C30.9996 35.764 31.2357 36 31.527 36C31.8183 36 32.0543 35.764 32.0543 35.4727V31.2068C32.0542 29.4798 30.9452 27.9784 29.2945 27.4705ZM12.4979 1.92345C13.4811 2.1372 14.5 2.18206 15.1815 2.18206H20.757C22.2028 2.18206 23.5867 2.79835 24.554 3.87279C25.5213 4.94723 25.9892 6.38807 25.8379 7.82588L25.4158 11.8364H25.3269C24.9961 11.8364 24.727 11.5673 24.727 11.2365V8.98203C24.727 7.75888 23.7319 6.76375 22.5087 6.76375H19.6906C16.1774 6.76375 13.6987 5.94651 12.3234 4.3346C11.4803 3.34636 11.2364 2.24204 11.1794 1.49511C11.5506 1.67005 11.9911 1.81327 12.4979 1.92345ZM23.6723 18.0001C23.6723 21.128 21.1276 23.6727 17.9997 23.6727C14.8718 23.6727 12.327 21.128 12.327 18.0001V17.4364C12.327 16.7948 12.849 16.2729 13.4906 16.2729H22.5087C23.1503 16.2729 23.6723 16.7948 23.6723 17.4364V18.0001ZM22.5086 15.2182H13.4906C12.5938 15.2182 11.8201 15.7535 11.4708 16.521C11.2921 15.9072 11.1998 15.2675 11.1998 14.6183C11.1998 14.327 10.9637 14.0909 10.6724 14.0909C10.3811 14.0909 10.1451 14.327 10.1451 14.6183V14.6545H9.82707C9.57838 14.6545 9.33988 14.5487 9.17288 14.3641C9.00371 14.1771 8.92454 13.9341 8.95 13.68C8.99429 13.2376 9.41483 12.8911 9.90744 12.8911C9.94175 12.8911 10.6724 12.8911 10.6724 12.8911C11.5848 12.8911 12.327 12.1488 12.327 11.2365V8.41834C12.327 8.2048 12.4421 8.0056 12.6273 7.89838C12.8794 7.75248 12.9656 7.42989 12.8197 7.17782C12.6738 6.92582 12.3512 6.83968 12.0991 6.98544C11.5891 7.28054 11.2723 7.82961 11.2723 8.41834V11.2365C11.2723 11.5673 11.0032 11.8364 10.6724 11.8364H10.5835L10.1613 7.82588C10.0324 6.60062 10.3528 5.37888 11.0466 4.37904C11.181 4.58864 11.3332 4.79761 11.5074 5.00313C13.0899 6.87111 15.8431 7.81836 19.6905 7.81836H22.5086C23.1502 7.81836 23.6722 8.34036 23.6722 8.98196V11.2365C23.6722 12.1488 24.4145 12.891 25.3268 12.891C25.3268 12.891 26.1236 12.891 26.1722 12.891C26.4209 12.891 26.6593 12.9969 26.8264 13.1815C26.9956 13.3685 27.0747 13.6114 27.0493 13.8656C27.005 14.308 26.5846 14.6545 26.092 14.6545H25.8539V14.6237C25.8539 14.3326 25.6179 14.0965 25.3268 14.0964H25.3266C25.0355 14.0964 24.7994 14.3322 24.7992 14.6233C24.7987 15.2702 24.7062 15.9081 24.528 16.5201C24.1786 15.753 23.4051 15.2182 22.5086 15.2182Z" fill="url(#paint5_linear_23_509)"/>
</g>
<defs>
<linearGradient id="paint0_linear_23_509" x1="14.0908" y1="14.0183" x2="15.469" y2="13.6661" gradientUnits="userSpaceOnUse">
<stop stop-color="#3A86FF"/>
<stop offset="1" stop-color="#B0CFFF"/>
</linearGradient>
<linearGradient id="paint1_linear_23_509" x1="20.8545" y1="14.0183" x2="22.2327" y2="13.6661" gradientUnits="userSpaceOnUse">
<stop stop-color="#3A86FF"/>
<stop offset="1" stop-color="#B0CFFF"/>
</linearGradient>
<linearGradient id="paint2_linear_23_509" x1="15.7817" y1="19.0911" x2="18.6473" y2="16.0111" gradientUnits="userSpaceOnUse">
<stop stop-color="#3A86FF"/>
<stop offset="1" stop-color="#B0CFFF"/>
</linearGradient>
<linearGradient id="paint3_linear_23_509" x1="13.5273" y1="11.7637" x2="15.3594" y2="10.2776" gradientUnits="userSpaceOnUse">
<stop stop-color="#3A86FF"/>
<stop offset="1" stop-color="#B0CFFF"/>
</linearGradient>
<linearGradient id="paint4_linear_23_509" x1="20.2905" y1="11.7637" x2="22.1226" y2="10.2776" gradientUnits="userSpaceOnUse">
<stop stop-color="#3A86FF"/>
<stop offset="1" stop-color="#B0CFFF"/>
</linearGradient>
<linearGradient id="paint5_linear_23_509" x1="3.94531" y1="36" x2="39.7223" y2="25.0471" gradientUnits="userSpaceOnUse">
<stop stop-color="#3A86FF"/>
<stop offset="1" stop-color="#B0CFFF"/>
</linearGradient>
<clipPath id="clip0_23_509">
<rect width="36" height="36" fill="white"/>
</clipPath>
</defs>
</svg>
