<svg width="36" height="36" viewBox="0 0 36 36" fill="none" xmlns="http://www.w3.org/2000/svg">
<g clip-path="url(#clip0_23_506)">
<path d="M29.4614 0C27.2959 0 25.3732 1.0594 24.1826 2.68734H17.6658V1.05855C17.6658 0.476086 17.1936 0.00386719 16.6111 0.00386719H10.9609C10.3785 0.00386719 9.90626 0.476086 9.90626 1.05855V2.68734H8.17404C7.59157 2.68734 7.11935 3.15956 7.11935 3.74203C7.11935 4.3245 7.59157 4.79672 8.17404 4.79672H9.90626V6.70669H9.65953C9.07706 6.70669 8.60484 7.17891 8.60484 7.76138V11.9878C3.56337 14.0344 0 18.9742 0 24.729C0 26.9167 0.528328 29.0941 1.52782 31.0258C2.4942 32.8935 3.90312 34.5424 5.60215 35.7944C5.78341 35.9279 6.00265 36 6.22779 36H21.3441C21.5693 36 21.7885 35.9279 21.9698 35.7944C23.6688 34.5424 25.0777 32.8935 26.044 31.0257C27.0436 29.094 27.5719 26.9167 27.5719 24.729C27.5719 18.9742 24.0084 14.0347 18.9671 11.9879V7.76138C18.9671 7.17891 18.4949 6.70669 17.9124 6.70669H17.6657V4.79672H23.1598C23.0055 5.35324 22.9227 5.93916 22.9227 6.5442C22.9227 10.1526 25.8559 13.0884 29.4613 13.0884C33.0666 13.0884 36 10.1526 36 6.5442C36 2.93576 33.0668 0 29.4614 0V0ZM10.7141 11.6498V8.81606H16.8578V11.6498H10.7141ZM25.4626 24.729C25.4626 26.6073 25.0279 28.3997 24.1707 30.0564C23.4041 31.538 22.3082 32.8575 20.9891 33.8907H6.58287C5.26388 32.8576 4.16791 31.5381 3.4013 30.0564C2.54405 28.3996 2.10938 26.6073 2.10938 24.729C2.10938 19.6752 5.35704 15.3643 9.8808 13.7592H17.6911C22.215 15.3643 25.4626 19.6752 25.4626 24.729ZM12.0156 6.70662V2.11324H15.5564V6.70669H12.0156V6.70662ZM29.4614 10.979C27.0192 10.979 25.0322 8.98959 25.0322 6.5442C25.0322 4.0988 27.0191 2.10938 29.4614 2.10938C31.9037 2.10938 33.8906 4.0988 33.8906 6.5442C33.8906 8.98959 31.9037 10.979 29.4614 10.979Z" fill="url(#paint0_linear_23_506)"/>
</g>
<defs>
<linearGradient id="paint0_linear_23_506" x1="0" y1="36" x2="36" y2="0" gradientUnits="userSpaceOnUse">
<stop stop-color="#577590"/>
<stop offset="1" stop-color="#AECCE7"/>
</linearGradient>
<clipPath id="clip0_23_506">
<rect width="36" height="36" fill="white"/>
</clipPath>
</defs>
</svg>
