<svg width="36" height="36" viewBox="0 0 36 36" fill="none" xmlns="http://www.w3.org/2000/svg">
<path d="M21.9178 7.35427V0.703125C21.9178 0.314789 21.6029 0 21.2147 0H14.7415C14.3532 0 14.0384 0.314789 14.0384 0.703125V7.37515C10.9889 8.85213 8.88086 11.9784 8.88086 15.5879V35.2969C8.88086 35.6852 9.19572 36 9.58398 36H26.416C26.8043 36 27.1191 35.6852 27.1191 35.2969V15.5879C27.1192 11.9611 24.9909 8.82239 21.9178 7.35427ZM15.4446 1.40625H20.5115V2.25H15.4446V1.40625ZM15.4446 3.65625H20.5115V6.82059C19.7133 6.59166 18.8709 6.46875 18 6.46875C17.1133 6.46875 16.2558 6.59651 15.4446 6.83367V3.65625ZM25.713 34.5938H10.2873V15.5879C10.2873 11.3349 13.7473 7.875 18 7.875C22.2528 7.875 25.7129 11.3349 25.7129 15.5879V34.5938H25.713Z" fill="url(#paint0_linear_23_504)"/>
<path d="M22.2934 26.1738H13.6626C13.2743 26.1738 12.9595 26.4886 12.9595 26.877C12.9595 27.2653 13.2743 27.5801 13.6626 27.5801H22.2934C22.6817 27.5801 22.9966 27.2653 22.9966 26.877C22.9966 26.4886 22.6818 26.1738 22.2934 26.1738Z" fill="url(#paint1_linear_23_504)"/>
<path d="M22.2934 29.0039H13.6626C13.2743 29.0039 12.9595 29.3187 12.9595 29.707C12.9595 30.0954 13.2743 30.4102 13.6626 30.4102H22.2934C22.6817 30.4102 22.9966 30.0954 22.9966 29.707C22.9966 29.3187 22.6818 29.0039 22.2934 29.0039Z" fill="url(#paint2_linear_23_504)"/>
<path d="M22.966 18.3631C22.5777 18.3631 22.2629 18.6778 22.2629 19.0662C22.2629 21.4249 20.3439 23.3439 17.9852 23.3439C15.6264 23.3439 13.7074 21.4249 13.7074 19.0662C13.7074 16.7075 15.6264 14.7885 17.9852 14.7885C18.5206 14.7885 19.0425 14.886 19.5363 15.0782C19.8985 15.219 20.3057 15.0399 20.4466 14.678C20.5875 14.3162 20.4083 13.9086 20.0465 13.7678C19.3893 13.512 18.6958 13.3823 17.9853 13.3823C14.8512 13.3823 12.3013 15.9321 12.3013 19.0663C12.3013 22.2004 14.8511 24.7501 17.9852 24.7501C21.1193 24.7501 23.6691 22.2003 23.6691 19.0662C23.6691 18.6778 23.3543 18.3631 22.966 18.3631Z" fill="url(#paint3_linear_23_504)"/>
<path d="M22.8159 16.1247C22.8075 16.0797 22.7934 16.0355 22.7759 15.9933C22.7583 15.9504 22.7365 15.9096 22.7112 15.8716C22.6859 15.833 22.6564 15.7971 22.624 15.7647C22.5916 15.7324 22.5558 15.7029 22.5171 15.6776C22.4791 15.6522 22.4384 15.6305 22.3955 15.6129C22.3533 15.5953 22.3091 15.5819 22.2641 15.5728C22.1734 15.5545 22.0798 15.5545 21.9898 15.5728C21.9448 15.5819 21.9005 15.5953 21.8577 15.6129C21.8154 15.6305 21.7747 15.6522 21.7367 15.6776C21.698 15.7029 21.6621 15.7324 21.6298 15.7647C21.5974 15.7971 21.5679 15.833 21.5426 15.8716C21.5166 15.9096 21.4955 15.9504 21.4779 15.9933C21.4603 16.0355 21.4463 16.0797 21.4379 16.1247C21.4287 16.1697 21.4238 16.2162 21.4238 16.2619C21.4238 16.3076 21.4287 16.354 21.4379 16.3997C21.4463 16.444 21.4603 16.4883 21.4779 16.5312C21.4955 16.5733 21.5166 16.6141 21.5426 16.6521C21.5679 16.6908 21.5974 16.7266 21.6298 16.759C21.6621 16.7913 21.698 16.8208 21.7367 16.8469C21.7747 16.8722 21.8154 16.894 21.8577 16.9116C21.9005 16.9291 21.9448 16.9425 21.9898 16.9516C22.0348 16.9608 22.0813 16.965 22.127 16.965C22.1726 16.965 22.2191 16.9608 22.2641 16.9516C22.3091 16.9425 22.3534 16.9291 22.3955 16.9116C22.4384 16.894 22.4791 16.8722 22.5171 16.8469C22.5558 16.8208 22.5916 16.7913 22.624 16.759C22.6564 16.7266 22.6859 16.6908 22.7112 16.6521C22.7365 16.6141 22.7583 16.5733 22.7759 16.5312C22.7934 16.4883 22.8075 16.444 22.8159 16.3997C22.8251 16.354 22.83 16.3076 22.83 16.2619C22.83 16.2162 22.8251 16.1697 22.8159 16.1247Z" fill="url(#paint4_linear_23_504)"/>
<defs>
<linearGradient id="paint0_linear_23_504" x1="8.88086" y1="36" x2="33.3064" y2="31.1481" gradientUnits="userSpaceOnUse">
<stop stop-color="#90BE6D"/>
<stop offset="1" stop-color="#C4ECA6"/>
</linearGradient>
<linearGradient id="paint1_linear_23_504" x1="12.9595" y1="27.5801" x2="14.5416" y2="23.1526" gradientUnits="userSpaceOnUse">
<stop stop-color="#90BE6D"/>
<stop offset="1" stop-color="#C4ECA6"/>
</linearGradient>
<linearGradient id="paint2_linear_23_504" x1="12.9595" y1="30.4102" x2="14.5416" y2="25.9827" gradientUnits="userSpaceOnUse">
<stop stop-color="#90BE6D"/>
<stop offset="1" stop-color="#C4ECA6"/>
</linearGradient>
<linearGradient id="paint3_linear_23_504" x1="12.3013" y1="24.7501" x2="26.0176" y2="19.3721" gradientUnits="userSpaceOnUse">
<stop stop-color="#90BE6D"/>
<stop offset="1" stop-color="#C4ECA6"/>
</linearGradient>
<linearGradient id="paint4_linear_23_504" x1="21.4238" y1="16.965" x2="23.1204" y2="16.2996" gradientUnits="userSpaceOnUse">
<stop stop-color="#90BE6D"/>
<stop offset="1" stop-color="#C4ECA6"/>
</linearGradient>
</defs>
</svg>
