<svg width="36" height="36" viewBox="0 0 36 36" fill="none" xmlns="http://www.w3.org/2000/svg">
<g clip-path="url(#clip0_23_507)">
<path d="M31.7632 4.22514C28.9632 1.42516 25.2409 -0.0748215 21.2817 0.00287384C19.5679 0.0362723 18.1297 1.23229 17.7844 2.91128L15.4586 14.2189L0.952645 28.7248C-0.302574 29.98 -0.302574 32.0226 0.952645 33.278L2.73176 35.057C3.33982 35.6651 4.14835 36 5.00834 36C5.86833 36 6.67686 35.6651 7.28492 35.057L21.4951 20.8468C21.5168 20.8441 21.5384 20.8408 21.5598 20.836L33.1409 18.2336C34.7825 17.8647 35.9518 16.4323 35.9846 14.7504L35.9854 14.7066C36.0628 10.7476 34.5632 7.02519 31.7632 4.22514ZM6.29112 34.0632C5.94849 34.4059 5.49293 34.5946 5.00834 34.5946C4.52375 34.5946 4.06826 34.4059 3.72563 34.0632L3.23393 33.5715L5.88092 30.9246C6.15535 30.6502 6.15542 30.2053 5.88092 29.9308C5.60642 29.6565 5.16155 29.6565 4.88712 29.9308L2.24014 32.5777L1.94644 32.284C1.2391 31.5768 1.2391 30.4258 1.94644 29.7185L9.64643 22.0185L13.9911 26.3631L6.29112 34.0632ZM14.9849 25.3694L10.6403 21.0248L15.9634 15.7017L20.3081 20.0463L14.9849 25.3694ZM34.5804 14.6791L34.5795 14.7229C34.5593 15.756 33.8411 16.6359 32.8329 16.8625L21.6292 19.38L21.0551 18.8059L25.8677 16.7259C26.224 16.5719 26.388 16.1583 26.234 15.8021C26.08 15.4459 25.6664 15.2818 25.3102 15.4358L19.9861 17.737L19.6338 17.3848L22.3267 14.6918C22.6012 14.4174 22.6012 13.9724 22.3267 13.698C22.0523 13.4236 21.6074 13.4236 21.3329 13.698L18.64 16.3909L18.3027 16.0535L20.6039 10.7294C20.7578 10.3732 20.5939 9.95954 20.2376 9.80563C19.8814 9.65151 19.4678 9.81562 19.3138 10.1719L17.2338 14.9845L16.8209 14.5716L19.161 3.1945C19.3731 2.16323 20.2564 1.4286 21.3092 1.40807C24.8846 1.33811 28.2423 2.69183 30.7695 5.21901C33.2967 7.74611 34.6501 11.1059 34.5804 14.6791Z" fill="url(#paint0_linear_23_507)"/>
<path d="M24.2005 11.824C24.0698 11.6934 23.8892 11.6182 23.7037 11.6182C23.5189 11.6182 23.3376 11.6933 23.2069 11.824C23.0761 11.9548 23.001 12.136 23.001 12.3209C23.001 12.5056 23.0761 12.687 23.2069 12.8177C23.3376 12.9484 23.5188 13.0236 23.7037 13.0236C23.8885 13.0236 24.0698 12.9484 24.2005 12.8177C24.3312 12.687 24.4064 12.5057 24.4064 12.3209C24.4064 12.136 24.3312 11.9548 24.2005 11.824Z" fill="url(#paint1_linear_23_507)"/>
<path d="M7.70832 28.1039C7.57761 27.9732 7.39634 27.8979 7.21149 27.8979C7.02671 27.8979 6.84538 27.9731 6.71466 28.1039C6.58395 28.2345 6.50879 28.4158 6.50879 28.6007C6.50879 28.7862 6.58395 28.9668 6.71466 29.0982C6.84538 29.2289 7.02664 29.3041 7.21149 29.3041C7.39627 29.3041 7.57761 29.229 7.70832 29.0982C7.83903 28.9668 7.9142 28.7863 7.9142 28.6007C7.9142 28.4158 7.83903 28.2345 7.70832 28.1039Z" fill="url(#paint2_linear_23_507)"/>
</g>
<defs>
<linearGradient id="paint0_linear_23_507" x1="0.0112321" y1="36" x2="43.4283" y2="18.9876" gradientUnits="userSpaceOnUse">
<stop stop-color="#9B5DE5"/>
<stop offset="1" stop-color="#DDC1FF"/>
</linearGradient>
<linearGradient id="paint1_linear_23_507" x1="23.001" y1="13.0236" x2="24.6967" y2="12.3587" gradientUnits="userSpaceOnUse">
<stop stop-color="#9B5DE5"/>
<stop offset="1" stop-color="#DDC1FF"/>
</linearGradient>
<linearGradient id="paint2_linear_23_507" x1="6.50879" y1="29.3041" x2="8.20477" y2="28.6394" gradientUnits="userSpaceOnUse">
<stop stop-color="#9B5DE5"/>
<stop offset="1" stop-color="#DDC1FF"/>
</linearGradient>
<clipPath id="clip0_23_507">
<rect width="36" height="36" fill="white"/>
</clipPath>
</defs>
</svg>
