<svg width="36" height="36" viewBox="0 0 36 36" fill="none" xmlns="http://www.w3.org/2000/svg">
<g clip-path="url(#clip0_23_508)">
<path d="M8.83789 8.85889C8.44977 8.85889 8.13477 9.17389 8.13477 9.56201C8.13477 9.95014 8.44977 10.2651 8.83789 10.2651C9.22602 10.2651 9.54102 9.95014 9.54102 9.56201C9.54102 9.17389 9.22602 8.85889 8.83789 8.85889Z" fill="url(#paint0_linear_23_508)"/>
<path d="M15.1657 22.0067H13.0564V19.8975C13.0564 19.5092 12.7416 19.1943 12.3533 19.1943C11.965 19.1943 11.6502 19.5092 11.6502 19.8975V22.0067H9.54102C9.15275 22.0067 8.83789 22.3216 8.83789 22.7098C8.83789 23.0979 9.15275 23.4129 9.54102 23.4129H11.6502V25.5221C11.6502 25.9104 11.9651 26.2252 12.3533 26.2252C12.7415 26.2252 13.0564 25.9104 13.0564 25.5221V23.4129H15.1657C15.5539 23.4129 15.8688 23.098 15.8688 22.7098C15.8688 22.3215 15.554 22.0067 15.1657 22.0067Z" fill="url(#paint1_linear_23_508)"/>
<path d="M34.1422 22.6395C32.588 19.9475 29.1514 19.0262 26.4589 20.5808L23.6029 22.2296V16.124C23.6029 15.3692 23.3533 14.6201 22.8999 14.0148L19.3845 9.32766V7.33177C20.2028 7.04152 20.7907 6.26006 20.7907 5.3434V2.10923C20.7905 0.946195 19.8443 0 18.6813 0H6.02567C4.86263 0 3.91636 0.946195 3.91636 2.10923V5.34347C3.91636 6.25999 4.50425 7.04159 5.32254 7.33184V9.32773L1.80685 14.0151C1.35361 14.6202 1.104 15.3692 1.104 16.124V29.7407C1.104 31.6792 2.68104 33.2561 4.61942 33.2561H15.9188C17.4953 35.8987 20.8946 36.7831 23.5592 35.2445L32.0836 30.3228C34.7523 28.7817 35.7043 25.3462 34.1422 22.6395ZM5.32254 2.10923C5.32254 1.72153 5.63796 1.40611 6.0256 1.40611H18.6812C19.0689 1.40611 19.3843 1.72153 19.3843 2.10923V5.34347C19.3843 5.73117 19.0689 6.04652 18.6812 6.04652H6.02567C5.63796 6.04652 5.32261 5.7311 5.32261 5.34347V2.10923H5.32254ZM2.93213 14.8584L6.5881 9.98388C6.67936 9.86224 6.72872 9.71416 6.72872 9.56201V7.45277H17.9782V8.85895H11.6504C11.2621 8.85895 10.9473 9.17381 10.9473 9.56208C10.9473 9.95034 11.2621 10.2652 11.6504 10.2652H18.3297L21.7745 14.8582C21.9997 15.1587 22.1395 15.5184 22.1818 15.8899H2.52516C2.56735 15.5183 2.7072 15.1587 2.93213 14.8584ZM4.61949 31.8499C3.45645 31.8499 2.51025 30.9037 2.51025 29.7407V29.0306H15.2843C15.0613 29.9422 15.0628 30.9159 15.3181 31.85H4.61949V31.8499ZM15.8357 27.6314H2.51018V17.296H22.1967V23.0414L17.9344 25.5025C17.0457 26.0158 16.3274 26.7466 15.8357 27.6314ZM22.8562 34.0267C20.8385 35.1918 18.2601 34.5028 17.0942 32.4836C15.9227 30.445 16.6327 27.8783 18.6377 26.7202L22.454 24.5167L26.6726 31.8232L22.8562 34.0267ZM31.3805 29.1051L27.8904 31.1202L23.6718 23.8135L27.162 21.7986C29.181 20.633 31.7585 21.3232 32.9244 23.3425C34.0955 25.3718 33.3833 27.9485 31.3805 29.1051Z" fill="url(#paint2_linear_23_508)"/>
</g>
<defs>
<linearGradient id="paint0_linear_23_508" x1="8.13477" y1="10.2651" x2="9.83154" y2="9.59985" gradientUnits="userSpaceOnUse">
<stop stop-color="#F94144"/>
<stop offset="1" stop-color="#FFBBBC"/>
</linearGradient>
<linearGradient id="paint1_linear_23_508" x1="8.83789" y1="26.2252" x2="17.3213" y2="22.899" gradientUnits="userSpaceOnUse">
<stop stop-color="#F94144"/>
<stop offset="1" stop-color="#FFBBBC"/>
</linearGradient>
<linearGradient id="paint2_linear_23_508" x1="1.104" y1="36" x2="42.5337" y2="20.7523" gradientUnits="userSpaceOnUse">
<stop stop-color="#F94144"/>
<stop offset="1" stop-color="#FFBBBC"/>
</linearGradient>
<clipPath id="clip0_23_508">
<rect width="36" height="36" fill="white"/>
</clipPath>
</defs>
</svg>
