<svg width="24" height="24" viewBox="0 0 24 24" fill="none" xmlns="http://www.w3.org/2000/svg">
<path d="M21 4H3C1.89543 4 1 4.89543 1 6V18C1 19.1046 1.89543 20 3 20H21C22.1046 20 23 19.1046 23 18V6C23 4.89543 22.1046 4 21 4Z" stroke="#414040" stroke-width="2" stroke-linecap="round" stroke-linejoin="round"/>
<path d="M1 10H23" stroke="#414040" stroke-linecap="round" stroke-linejoin="round"/>
<g clip-path="url(#clip0_83_2220)">
<path d="M18 23C20.7614 23 23 20.7614 23 18C23 15.2386 20.7614 13 18 13C15.2386 13 13 15.2386 13 18C13 20.7614 15.2386 23 18 23Z" fill="white" stroke="#414040" stroke-linecap="round" stroke-linejoin="round"/>
<path d="M18 15V18L20 19" stroke="#414040" stroke-linecap="round" stroke-linejoin="round"/>
</g>
<defs>
<clipPath id="clip0_83_2220">
<rect width="12" height="12" fill="white" transform="translate(12 12)"/>
</clipPath>
</defs>
</svg>
